<?xml version="1.0"?>
<svg xmlns="http://www.w3.org/2000/svg" xmlns:xlink="http://www.w3.org/1999/xlink" version="1.1" id="Capa_1" x="0px" y="0px" viewBox="0 0 512 512" style="enable-background:new 0 0 512 512;" xml:space="preserve" width="512px" height="512px" class=""><g><path style="fill:#F26822" d="M467,76H45C20.099,76,0,96.099,0,121v270c0,24.899,20.099,45,45,45h422c24.901,0,45-20.101,45-45V121  C512,96.099,491.901,76,467,76z" data-original="#FD4E26" class="" data-old_color="#FD4E26"/><path style="fill:#F2682225" d="M512,121v270c0,24.899-20.099,45-45,45H165V76h302C491.901,76,512,96.099,512,121z" data-original="#FD3018" class="active-path" data-old_color="#FD3018"/><g>
	<path style="fill:#FFFFFF" d="M437,316H315c-8.291,0-15-6.709-15-15s6.709-15,15-15h122c8.291,0,15,6.709,15,15   S445.291,316,437,316z" data-original="#57555C" class="" data-old_color="#57555C"/>
	<path style="fill:#FFFFFF" d="M437,376H315c-8.291,0-15-6.709-15-15s6.709-15,15-15h122c8.291,0,15,6.709,15,15   S445.291,376,437,376z" data-original="#57555C" class="" data-old_color="#57555C"/>
</g><path style="fill:#F2682258" d="M512,196H255c-8.291,0-15,6.709-15,15s6.709,15,15,15h257V196z" data-original="#FE9923" class="" data-old_color="#FE9923"/><g>
	<path style="fill:#FFFFFF" d="M75,196H0v30h75c8.291,0,15-6.709,15-15S83.291,196,75,196z" data-original="#FEA832" class="" data-old_color="#FEA832"/>
	<rect x="150" y="76" style="fill:#FFFFFF" width="30" height="360" data-original="#FEA832" class="" data-old_color="#FEA832"/>
</g><rect x="165" y="76" style="fill:#F2682258" width="15" height="360" data-original="#FE9923" class="" data-old_color="#FE9923"/><path style="fill:#FFFFFF" d="M245.099,169.3c-15.3-8.101-33.9-7.2-48.3,2.401L165,192.999L133.2,171.7  c-14.399-9.6-32.999-10.501-48.3-2.401C69.6,177.7,60,193.599,60,211c0,17.399,9.6,33.3,24.901,41.7c6.899,3.6,14.7,5.4,22.2,5.4  c3.3,0,6.301-0.601,9.3-1.201l-24,35.7c-4.501,6.901-2.701,16.201,4.199,21c6.901,4.501,16.201,2.701,21-4.2l47.401-71.4  l47.401,71.4c2.999,4.2,7.8,6.601,12.599,6.601c2.999,0,5.7-0.901,8.401-2.401c6.899-4.799,8.699-14.099,4.199-21l-24-35.7  c2.999,0.601,6,1.201,9.3,1.201c7.5,0,15.3-1.8,22.2-5.4C260.4,244.3,270,228.399,270,211C270,193.599,260.4,177.7,245.099,169.3z   M116.7,225.399c-5.4,3.3-12.001,3.6-17.701,0.601c-5.7-3.001-9-8.701-9-15c0-6.301,3.3-12.001,9-15c2.701-1.5,5.4-2.1,8.101-2.1  c3.3,0,6.599,0.899,9.6,2.699L137.999,211L116.7,225.399z M231,226c-5.7,2.999-12.301,2.699-17.701-0.601L192.001,211l21.299-14.401  c5.4-3.3,12.001-3.6,17.701-0.599c5.7,2.999,9,8.699,9,15C240,217.299,236.7,222.999,231,226z" data-original="#FEDB41" class="" data-old_color="#FEDB41"/><path style="fill:#FFFFFF" d="M245.099,169.3c-15.3-8.101-33.9-7.2-48.3,2.401L165,192.999v45l47.401,71.4  c2.999,4.2,7.8,6.601,12.599,6.601c2.999,0,5.7-0.901,8.401-2.401c6.899-4.799,8.699-14.099,4.199-21l-24-35.7  c2.999,0.601,6,1.201,9.3,1.201c7.5,0,15.3-1.8,22.2-5.4c15.3-8.4,24.9-24.301,24.9-41.7C270,193.599,260.4,177.7,245.099,169.3z   M231,226c-5.7,2.999-12.301,2.699-17.701-0.601L192.001,211l21.299-14.401c5.4-3.3,12.001-3.6,17.701-0.599c5.7,2.999,9,8.699,9,15  C240,217.299,236.7,222.999,231,226z" data-original="#FCBF29" class="" data-old_color="#FCBF29"/></g> </svg>
